HIERARCHY
ROOT Hips
{
	OFFSET 0.000000 121.760803 0.000000
	CHANNELS 6 Xposition Yposition Zposition Xrotation Yrotation Zrotation 
	JOINT Spine
	{
		OFFSET 0.072000 7.257294 -0.789700
		CHANNELS 3 Xrotation Yrotation Zrotation
		JOINT Spine1
		{
			OFFSET 0.000000 12.508769 -0.658067
			CHANNELS 3 Xrotation Yrotation Zrotation
			JOINT Spine1_split
			{
				OFFSET 0.000000 12.508769 -0.658067
				CHANNELS 3 Xrotation Yrotation Zrotation
				JOINT Spine2
				{
					OFFSET 0.000000 12.508769 -0.658067
					CHANNELS 3 Xrotation Yrotation Zrotation
					JOINT Neck
					{
						OFFSET 0.000000 14.033295 7.520400
						CHANNELS 3 Xrotation Yrotation Zrotation
						JOINT Head
						{
							OFFSET 0.000000 8.198502 5.703100
							CHANNELS 3 Xrotation Yrotation Zrotation
							JOINT HeadTop_End
							{
								OFFSET 0.000000 17.760803 13.332701
								CHANNELS 3 Xrotation Yrotation Zrotation
								End Site
								{
									OFFSET 0.000000 0.000000 0.000000
								}
							}
						}
					}
					JOINT LeftShoulder
					{
						OFFSET 6.292450 5.785301 -0.669000
						CHANNELS 3 Xrotation Yrotation Zrotation
						JOINT LeftShoulder_split
						{
							OFFSET 6.292450 5.785301 -0.669000
							CHANNELS 3 Xrotation Yrotation Zrotation
							JOINT LeftArm
							{
								OFFSET 13.907140 -6.093903 1.965100
								CHANNELS 3 Xrotation Yrotation Zrotation
								JOINT LeftForeArm
								{
									OFFSET 34.140198 0.000000 0.000000
									CHANNELS 3 Xrotation Yrotation Zrotation
									JOINT LeftHand
									{
										OFFSET 40.960209 0.000000 0.000000
										CHANNELS 3 Xrotation Yrotation Zrotation
										JOINT LeftHandThumb1
										{
											OFFSET 10.006996 -7.170425 9.573125
											CHANNELS 3 Xrotation Yrotation Zrotation
											JOINT LeftHandThumb2
											{
												OFFSET 1.835007 -1.059448 1.059443
												CHANNELS 3 Xrotation Yrotation Zrotation
												JOINT LeftHandThumb3
												{
													OFFSET 2.112267 -1.219513 1.219518
													CHANNELS 3 Xrotation Yrotation Zrotation
													JOINT LeftHandThumb4
													{
														OFFSET 4.843811 -2.796570 2.796576
														CHANNELS 3 Xrotation Yrotation Zrotation
														End Site
														{
															OFFSET 0.000000 0.000000 0.000000
														}
													}
												}
											}
										}
										JOINT LeftHandIndex1
										{
											OFFSET 18.389847 -0.922348 4.596882
											CHANNELS 3 Xrotation Yrotation Zrotation
											JOINT LeftHandIndex2
											{
												OFFSET 4.711273 0.000000 0.000000
												CHANNELS 3 Xrotation Yrotation Zrotation
												JOINT LeftHandIndex3
												{
													OFFSET 2.886131 0.000000 0.000000
													CHANNELS 3 Xrotation Yrotation Zrotation
													JOINT LeftHandIndex4
													{
														OFFSET 6.145912 0.000000 0.000000
														CHANNELS 3 Xrotation Yrotation Zrotation
														End Site
														{
															OFFSET 0.000000 0.000000 0.000000
														}
													}
												}
											}
										}
										JOINT LeftHandMiddle1
										{
											OFFSET 18.013008 0.000000 0.000000
											CHANNELS 3 Xrotation Yrotation Zrotation
											JOINT LeftHandMiddle2
											{
												OFFSET 4.946693 0.000000 0.000000
												CHANNELS 3 Xrotation Yrotation Zrotation
												JOINT LeftHandMiddle3
												{
													OFFSET 3.342232 0.000000 0.000000
													CHANNELS 3 Xrotation Yrotation Zrotation
													JOINT LeftHandMiddle4
													{
														OFFSET 4.461754 0.000000 0.000000
														CHANNELS 3 Xrotation Yrotation Zrotation
														End Site
														{
															OFFSET 0.000000 0.000000 0.000000
														}
													}
												}
											}
										}
										JOINT LeftHandRing1
										{
											OFFSET 15.849892 -0.102921 -4.126150
											CHANNELS 3 Xrotation Yrotation Zrotation
											JOINT LeftHandRing2
											{
												OFFSET 3.527054 0.000000 0.000000
												CHANNELS 3 Xrotation Yrotation Zrotation
												JOINT LeftHandRing3
												{
													OFFSET 2.961098 0.000000 0.000000
													CHANNELS 3 Xrotation Yrotation Zrotation
													JOINT LeftHandRing4
													{
														OFFSET 4.927200 0.000000 0.000000
														CHANNELS 3 Xrotation Yrotation Zrotation
														End Site
														{
															OFFSET 0.000000 0.000000 0.000000
														}
													}
												}
											}
										}
										JOINT LeftHandPinky1
										{
											OFFSET 12.791824 -0.832031 -6.799156
											CHANNELS 3 Xrotation Yrotation Zrotation
											JOINT LeftHandPinky2
											{
												OFFSET 3.327133 0.000000 0.000000
												CHANNELS 3 Xrotation Yrotation Zrotation
												JOINT LeftHandPinky3
												{
													OFFSET 3.014900 0.000000 0.000000
													CHANNELS 3 Xrotation Yrotation Zrotation
													JOINT LeftHandPinky4
													{
														OFFSET 5.847786 0.000000 0.000000
														CHANNELS 3 Xrotation Yrotation Zrotation
														End Site
														{
															OFFSET 0.000000 0.000000 0.000000
														}
													}
												}
											}
										}
									}
								}
							}
						}
					}
					JOINT RightShoulder
					{
						OFFSET -6.292450 5.785301 -0.669000
						CHANNELS 3 Xrotation Yrotation Zrotation
						JOINT RightShoulder_split
						{
							OFFSET -6.292450 5.785301 -0.669000
							CHANNELS 3 Xrotation Yrotation Zrotation
							JOINT RightArm
							{
								OFFSET -13.907140 -6.093903 1.965100
								CHANNELS 3 Xrotation Yrotation Zrotation
								JOINT RightForeArm
								{
									OFFSET -34.140198 0.000000 0.000000
									CHANNELS 3 Xrotation Yrotation Zrotation
									JOINT RightHand
									{
										OFFSET -40.960209 0.000000 0.000000
										CHANNELS 3 Xrotation Yrotation Zrotation
										JOINT RightHandThumb1
										{
											OFFSET -10.007050 -7.170456 9.573117
											CHANNELS 3 Xrotation Yrotation Zrotation
											JOINT RightHandThumb2
											{
												OFFSET -1.835007 -1.059448 1.059443
												CHANNELS 3 Xrotation Yrotation Zrotation
												JOINT RightHandThumb3
												{
													OFFSET -2.112267 -1.219513 1.219518
													CHANNELS 3 Xrotation Yrotation Zrotation
													JOINT RightHandThumb4
													{
														OFFSET -4.843834 -2.796585 2.796590
														CHANNELS 3 Xrotation Yrotation Zrotation
														End Site
														{
															OFFSET 0.000000 0.000000 0.000000
														}
													}
												}
											}
										}
										JOINT RightHandIndex1
										{
											OFFSET -18.389870 -0.922424 4.596786
											CHANNELS 3 Xrotation Yrotation Zrotation
											JOINT RightHandIndex2
											{
												OFFSET -4.711273 0.000000 0.000000
												CHANNELS 3 Xrotation Yrotation Zrotation
												JOINT RightHandIndex3
												{
													OFFSET -2.886131 0.000000 0.000000
													CHANNELS 3 Xrotation Yrotation Zrotation
													JOINT RightHandIndex4
													{
														OFFSET -6.145920 0.000000 0.000000
														CHANNELS 3 Xrotation Yrotation Zrotation
														End Site
														{
															OFFSET 0.000000 0.000000 0.000000
														}
													}
												}
											}
										}
										JOINT RightHandMiddle1
										{
											OFFSET -18.013008 0.000000 0.000000
											CHANNELS 3 Xrotation Yrotation Zrotation
											JOINT RightHandMiddle2
											{
												OFFSET -4.946693 0.000000 0.000000
												CHANNELS 3 Xrotation Yrotation Zrotation
												JOINT RightHandMiddle3
												{
													OFFSET -3.342232 0.000000 0.000000
													CHANNELS 3 Xrotation Yrotation Zrotation
													JOINT RightHandMiddle4
													{
														OFFSET -4.461754 0.000000 0.000000
														CHANNELS 3 Xrotation Yrotation Zrotation
														End Site
														{
															OFFSET 0.000000 0.000000 0.000000
														}
													}
												}
											}
										}
										JOINT RightHandRing1
										{
											OFFSET -15.849876 -0.102936 -4.126237
											CHANNELS 3 Xrotation Yrotation Zrotation
											JOINT RightHandRing2
											{
												OFFSET -3.527054 0.000000 0.000000
												CHANNELS 3 Xrotation Yrotation Zrotation
												JOINT RightHandRing3
												{
													OFFSET -2.961098 0.000000 0.000000
													CHANNELS 3 Xrotation Yrotation Zrotation
													JOINT RightHandRing4
													{
														OFFSET -4.927200 0.000000 0.000000
														CHANNELS 3 Xrotation Yrotation Zrotation
														End Site
														{
															OFFSET 0.000000 0.000000 0.000000
														}
													}
												}
											}
										}
										JOINT RightHandPinky1
										{
											OFFSET -12.791786 -0.832077 -6.799222
											CHANNELS 3 Xrotation Yrotation Zrotation
											JOINT RightHandPinky2
											{
												OFFSET -3.327133 0.000000 0.000000
												CHANNELS 3 Xrotation Yrotation Zrotation
												JOINT RightHandPinky3
												{
													OFFSET -3.014900 0.000000 0.000000
													CHANNELS 3 Xrotation Yrotation Zrotation
													JOINT RightHandPinky4
													{
														OFFSET -5.847786 0.000000 0.000000
														CHANNELS 3 Xrotation Yrotation Zrotation
														End Site
														{
															OFFSET 0.000000 0.000000 0.000000
														}
													}
												}
											}
										}
									}
								}
							}
						}
					}
				}
			}
		}
	}
	JOINT LeftUpLeg
	{
		OFFSET 13.026900 -6.336304 -1.092800
		CHANNELS 3 Xrotation Yrotation Zrotation
		JOINT LeftLeg
		{
			OFFSET 0.524474 -46.096886 9.782700
			CHANNELS 3 Xrotation Yrotation Zrotation
			JOINT LeftFoot
			{
				OFFSET -0.524474 -53.427422 -12.948200
				CHANNELS 3 Xrotation Yrotation Zrotation
				JOINT LeftToeBase
				{
					OFFSET 0.192200 -14.009700 16.364100
					CHANNELS 3 Xrotation Yrotation Zrotation
					JOINT LeftToe_End
					{
						OFFSET -1.784700 -0.561700 9.474800
						CHANNELS 3 Xrotation Yrotation Zrotation
						End Site
						{
							OFFSET 0.000000 0.000000 0.000000
						}
					}
				}
			}
		}
	}
	JOINT RightUpLeg
	{
		OFFSET -12.883000 -6.336304 -1.092800
		CHANNELS 3 Xrotation Yrotation Zrotation
		JOINT RightLeg
		{
			OFFSET -0.524587 -46.096825 9.782800
			CHANNELS 3 Xrotation Yrotation Zrotation
			JOINT RightFoot
			{
				OFFSET 0.524587 -53.427383 -12.948300
				CHANNELS 3 Xrotation Yrotation Zrotation
				JOINT RightToeBase
				{
					OFFSET -0.192200 -14.009700 16.364100
					CHANNELS 3 Xrotation Yrotation Zrotation
					JOINT RightToe_End
					{
						OFFSET 1.784700 -0.561700 9.474800
						CHANNELS 3 Xrotation Yrotation Zrotation
						End Site
						{
							OFFSET 0.000000 0.000000 0.000000
						}
					}
				}
			}
		}
	}
}
MOTION
Frames: 4
Frame Time: 0.016667
-0.274523 115.012421 1.173872 2.379452 -11.999742 -0.443571 9.426348 2.006338 0.361131 2.870548 4.029878 0.917350 0.000000 0.000000 0.000000 -9.001474 3.754921 1.727677 -3.884243 2.070162 -6.983152 5.913066 -0.105760 7.514577 -0.000000 0.000000 -0.000000 -1.295774 0.077919 -4.827720 0.000000 0.000000 0.000000 -3.652862 -0.069589 -73.007031 -0.000047 -15.717674 -0.000389 2.306656 0.164981 -5.013133 8.265294 -7.734428 18.880837 5.407292 20.572718 -9.835093 1.742541 3.611564 -0.678866 0.000000 0.000001 0.000005 0.273658 -4.246505 -3.910702 0.097439 -0.794744 -17.447652 -0.022295 -0.374350 -8.071630 -0.000001 0.000001 0.000000 0.248924 -1.909200 -12.464976 -0.126920 -0.878896 -17.469116 -0.119960 -0.934118 -18.480103 -0.000001 0.000000 -0.000001 0.311235 -1.760776 -17.977497 -0.194371 -1.090510 -20.983248 -0.031934 -0.974394 -17.928738 -0.000002 -0.000001 -0.000003 0.622130 -0.700684 -24.132880 -0.024670 -0.945237 -17.465309 -0.471776 -0.844731 -16.565985 0.000001 -0.000001 0.000001 -1.295767 -0.077837 4.827745 0.000000 0.000000 0.000000 3.909175 3.069876 67.997730 -0.000005 18.089261 0.000025 2.313892 -1.592966 -2.170068 8.265279 7.734435 -18.880811 5.407325 -20.572680 9.835180 1.742516 -3.611573 0.678908 0.000000 0.000001 0.000001 0.272406 4.252687 3.917189 0.097391 0.794947 17.452759 -0.022388 0.374612 8.076849 -0.000001 0.000001 -0.000000 0.250214 1.903641 12.463715 -0.126985 0.878942 17.470161 -0.119965 0.934155 18.481187 -0.000000 -0.000000 -0.000004 0.310434 1.762612 17.988987 -0.194387 1.090564 20.984720 -0.031870 0.974272 17.926152 -0.000001 0.000001 0.000002 0.626364 0.701962 24.132114 -0.024628 0.945191 17.464141 -0.471748 0.844625 16.562828 -0.000001 0.000000 -0.000001 -19.243725 11.897927 14.206519 20.024057 4.990685 1.866916 -1.611301 5.407382 -11.448053 -3.075477 -2.348385 -2.459404 -0.000000 -0.000000 -0.000000 -12.379522 -8.270580 -7.597181 20.710378 -4.950477 -1.734283 -9.856469 -0.720191 9.558027 -5.415929 2.348512 2.459445 0.000000 -0.000000 -0.000000 
-0.210584 114.997238 1.194224 2.552135 -12.080524 -0.469366 9.401171 1.925523 0.394949 2.806023 4.034561 0.910477 0.000000 0.000000 0.000000 -9.063594 3.756301 1.734032 -4.162336 1.706294 -7.754408 6.269308 -1.220015 8.671233 0.000000 0.000000 0.000000 -1.298117 0.155754 -4.850347 0.000000 0.000000 0.000000 -3.189655 0.061111 -72.936735 -0.000018 -16.015506 -0.000206 3.331694 -0.184956 -5.638273 8.273790 -7.737124 18.864330 5.390316 20.552449 -9.830144 1.742513 3.611567 -0.678851 -0.000001 0.000000 -0.000002 0.270694 -4.248335 -3.950685 0.097112 -0.795832 -17.472104 -0.022392 -0.375033 -8.086803 -0.000001 0.000000 -0.000001 0.246387 -1.912594 -12.540573 -0.127543 -0.880734 -17.507096 -0.120401 -0.935558 -18.509582 0.000001 -0.000001 -0.000003 0.308632 -1.764636 -18.061522 -0.195019 -1.092077 -21.014962 -0.032743 -0.976947 -17.977063 -0.000002 0.000001 0.000002 0.621595 -0.702829 -24.174739 -0.025604 -0.948274 -17.523257 -0.472766 -0.848021 -16.635882 0.000001 0.000001 0.000002 -1.275745 -0.132166 4.800656 0.000000 0.000000 0.000000 4.101211 3.268594 67.974514 0.000937 18.208673 -0.000205 2.345987 -1.166089 -2.036998 8.265278 7.734436 -18.880810 5.407326 -20.572680 9.835188 1.742516 -3.611572 0.678908 0.000000 0.000001 0.000004 0.272066 4.256428 3.991454 0.096758 0.796876 17.496465 -0.022568 0.376380 8.115609 0.000001 0.000000 0.000001 0.248833 1.912044 12.629768 -0.128503 0.883668 17.567530 -0.121157 0.937815 18.556605 -0.000001 0.000000 0.000002 0.304024 1.771973 18.193773 -0.195453 1.093397 21.041610 -0.033980 0.980787 18.050045 0.000000 0.000000 -0.000001 0.625180 0.706774 24.225489 -0.026353 0.950796 17.571485 -0.474243 0.852935 16.741880 0.000000 -0.000000 -0.000000 -19.451484 11.847601 14.245845 20.128361 5.052652 1.876049 -1.669933 5.455590 -11.445974 -3.075522 -2.348373 -2.459408 0.000000 0.000000 -0.000000 -12.557075 -8.263052 -7.567074 20.687067 -4.910136 -1.728918 -9.823129 -0.691674 9.576545 -5.415926 2.348567 2.459446 0.000001 0.000003 -0.000000 
-0.030949 114.962822 1.215875 2.726494 -12.133166 -0.507194 9.397123 1.828812 0.462704 2.763059 4.049148 0.909947 0.000000 0.000000 0.000000 -9.100127 3.757395 1.768803 -4.412551 1.409383 -8.672614 6.710948 -2.881741 10.234382 0.000000 0.000000 -0.000000 -1.303886 0.333881 -4.902907 0.000000 0.000000 0.000000 -3.050629 0.056951 -72.883350 -0.000012 -15.382360 -0.000236 4.405430 -1.213636 -6.241248 8.292457 -7.742952 18.828393 5.350610 20.509296 -9.813134 1.742516 3.611559 -0.678860 0.000003 0.000000 0.000001 0.264213 -4.252226 -4.038105 0.096375 -0.798198 -17.525702 -0.022624 -0.376576 -8.119961 -0.000001 0.000003 0.000001 0.240802 -1.919972 -12.705964 -0.128833 -0.884776 -17.590391 -0.121464 -0.938703 -18.574044 0.000000 -0.000002 -0.000003 0.302889 -1.773015 -18.245327 -0.196333 -1.095558 -21.084495 -0.034536 -0.982487 -18.082921 -0.000000 -0.000000 -0.000003 0.620441 -0.707531 -24.266335 -0.027730 -0.954873 -17.650016 -0.474905 -0.855132 -16.788876 0.000001 -0.000001 -0.000003 -1.219722 -0.284618 4.724592 0.000000 0.000000 0.000000 4.623788 3.807457 67.911806 0.003489 18.543421 -0.000407 2.401646 -0.735411 -1.898763 8.265275 7.734434 -18.880811 5.407325 -20.572680 9.835183 1.742515 -3.611572 0.678908 -0.000001 0.000000 -0.000001 0.271350 4.264613 4.154752 0.095367 0.801150 17.592665 -0.023135 0.380240 8.199588 -0.000001 0.000000 -0.000002 0.245841 1.930338 12.992148 -0.131764 0.893971 17.778813 -0.123867 0.945789 18.720264 0.000000 0.000001 0.000002 0.296103 1.794271 18.638686 -0.197846 1.099613 21.166821 -0.038647 0.994848 18.318745 -0.000000 -0.000000 -0.000000 0.622698 0.717229 24.429128 -0.030329 0.963088 17.807177 -0.479742 0.870970 17.130371 0.000000 0.000002 0.000006 -19.738109 11.793706 14.240822 20.351093 5.102168 1.888627 -1.792361 5.495202 -11.378024 -3.075499 -2.348347 -2.459391 -0.000000 -0.000000 -0.000000 -12.757187 -8.242229 -7.593909 20.675785 -4.881982 -1.723459 -9.768108 -0.678881 9.662356 -5.415901 2.348540 2.459452 0.000000 0.000000 0.000000 
0.251740 114.911957 1.239123 2.901795 -12.169973 -0.554946 9.414865 1.721592 0.555572 2.745824 4.068234 0.905524 0.000000 0.000000 0.000000 -9.107705 3.755931 1.814801 -4.798414 1.136499 -9.430943 7.361171 -4.778216 11.803092 0.000000 0.000000 0.000001 -1.311608 0.529196 -4.962478 0.000000 0.000000 0.000000 -2.922621 0.021941 -72.895699 0.000042 -14.822135 -0.000250 5.163003 -2.007064 -6.577193 8.316516 -7.750527 18.781910 5.299049 20.453591 -9.790639 1.742516 3.611556 -0.678905 -0.000002 -0.000000 -0.000003 0.255901 -4.257259 -4.151001 0.095369 -0.801278 -17.594982 -0.022916 -0.378543 -8.162720 -0.000001 0.000001 -0.000002 0.237192 -1.930313 -12.919517 -0.130451 -0.890011 -17.697821 -0.122869 -0.942761 -18.657304 -0.000000 0.000000 0.000001 0.295434 -1.783793 -18.482724 -0.198012 -1.100020 -21.174404 -0.036909 -0.989658 -18.219586 0.000001 -0.000002 -0.000005 0.618891 -0.713579 -24.384668 -0.030469 -0.963432 -17.813803 -0.477687 -0.864308 -16.986443 0.000000 0.000000 -0.000000 -1.134008 -0.519546 4.607378 0.000000 0.000000 0.000000 5.397549 4.600121 67.820404 0.007695 19.058804 -0.000945 2.479783 -0.301322 -1.755892 8.265277 7.734434 -18.880811 5.407324 -20.572682 9.835186 1.742516 -3.611574 0.678907 -0.000002 0.000000 0.000004 0.270305 4.275208 4.365249 0.093648 0.806664 17.716783 -0.023884 0.385204 8.307189 -0.000001 -0.000001 -0.000000 0.241733 1.953905 13.457440 -0.135982 0.907065 18.049130 -0.127373 0.956040 18.929729 -0.000000 0.000001 0.000003 0.286101 1.822934 19.208676 -0.200977 1.107615 21.328437 -0.044632 1.012871 18.662669 0.000000 0.000000 0.000000 0.619389 0.730665 24.690611 -0.035458 0.978941 18.111194 -0.487003 0.894027 17.627501 0.000001 -0.000000 -0.000002 -20.087035 11.739548 14.195628 20.671021 5.145389 1.904250 -1.969623 5.530361 -11.252924 -3.075533 -2.348377 -2.459404 0.000000 -0.000000 0.000000 -12.977518 -8.208753 -7.673099 20.672044 -4.859226 -1.716496 -9.690243 -0.676181 9.806481 -5.415935 2.348523 2.459457 0.000000 -0.000001 -0.000000 
